<?xml version="1.0" encoding="utf-8"?>
<!-- Generator: Adobe Illustrator 18.1.0, SVG Export Plug-In . SVG Version: 6.00 Build 0)  -->
<svg version="1.1" id="Calque_1" xmlns="http://www.w3.org/2000/svg" xmlns:xlink="http://www.w3.org/1999/xlink" x="0px" y="0px"
	 viewBox="-16 44 32 32" enable-background="new -16 44 32 32" xml:space="preserve">
<path d="M10.3,56.7c-1.9-0.3-3.6,0.2-4.9,1.3l-1.1-1.1L5,54.6h0.6v-1.1c0-0.2-0.2-0.4-0.4-0.4H3.4c-0.2,0-0.4,0.2-0.4,0.4v1.1h0.5
	l-0.6,1.7l-8.1-1.2l1-2.4c0.2-0.4,0-0.9-0.5-1.1l-2-0.7L-7,52.3l1.3,0.4L-7.6,57c-1.1-0.3-2.4-0.4-3.7,0.1c-2.1,0.7-3.7,2.5-4.1,4.7
	c-0.8,4.2,2.7,7.8,6.9,7.2c2.6-0.4,4.8-2.5,5.2-5.1c0.4-2.7-0.9-5.1-3-6.3l0.3-0.7l6.8,6.5c0.2,0.2,0.4,0.3,0.7,0.3h1.6
	c0.4,2.9,3,5.2,6.1,5.2c3.6,0,6.5-3.2,6.1-6.9C15.1,59.3,13,57.1,10.3,56.7z M-4.6,62.9c0,2.9-2.7,5.2-5.7,4.6
	c-1.8-0.4-3.2-1.8-3.6-3.6c-0.6-3,1.7-5.7,4.6-5.7c0.4,0,0.8,0.1,1.1,0.2l-1.6,3.8c-0.1,0.3,0,0.6,0.3,0.7l0.4,0.2
	c0.3,0.1,0.6,0,0.7-0.3l1.6-3.8C-5.5,59.8-4.6,61.3-4.6,62.9z M1.2,61.6L-4,56.7l6.5,1L1.2,61.6z M3.2,62.2H2.5l1.2-3.8l0.6,0.6
	C3.7,60,3.3,61,3.2,62.2z M5.4,60.1l2.1,2.1H4.7C4.8,61.4,5,60.7,5.4,60.1z M10.1,67.3c-2.6,0.4-4.9-1.3-5.4-3.7h5.1
	c0.5,0,0.7-0.6,0.4-0.9l-3.7-3.7c0.8-0.6,1.8-1,2.9-1c2.9,0,5.2,2.7,4.6,5.7C13.5,65.6,12,67,10.1,67.3z"/>
</svg>
