<?xml version="1.0" encoding="utf-8"?>
<!-- Generator: Adobe Illustrator 18.1.0, SVG Export Plug-In . SVG Version: 6.00 Build 0)  -->
<svg version="1.1" id="Calque_1" xmlns="http://www.w3.org/2000/svg" xmlns:xlink="http://www.w3.org/1999/xlink" x="0px" y="0px"
	 viewBox="-2 8 44 44" enable-background="new -2 8 44 44" xml:space="preserve">
<g>
	<path fill="none" d="M24.4,41.7c2-2.7,3.8-6.8,3.2-11.7c0,0,0-0.1,0-0.1l0,0c3.3-0.7,5.3-1,5.2-2.1c-0.1-1.1-1.5-0.8-2.3-0.6
		c-0.6,0.2-2.4,0.6-3.2,0.8c-0.1-0.6-0.2-1.1-0.3-1.6c2.9-0.6,4.6-0.9,4.5-2c-0.1-1.1-1.5-0.8-2.3-0.6c-0.5,0.1-1.8,0.5-2.7,0.7
		c-0.2-0.6-0.3-1.1-0.5-1.6c2.7-0.6,4.3-0.9,4.2-1.9c-0.1-1.1-1.5-0.8-2.3-0.6c-0.5,0.1-1.7,0.4-2.5,0.7c-1.4-3.8-2.9-6-2.9-6
		s6.6,0,6.5-3.3S20,8,20,8s-8.9,0.5-9,3.8c-0.1,3.3,6.5,3.3,6.5,3.3s-1.5,2.2-2.9,6c-0.9-0.2-2.1-0.5-2.5-0.7
		c-0.8-0.2-2.2-0.5-2.3,0.6c-0.1,1,1.5,1.3,4.2,1.9c-0.2,0.5-0.3,1.1-0.5,1.6c-0.9-0.2-2.2-0.5-2.7-0.7c-0.8-0.2-2.2-0.5-2.3,0.6
		c-0.1,1,1.6,1.4,4.5,2c-0.1,0.5-0.2,1.1-0.3,1.6c-0.8-0.2-2.6-0.6-3.2-0.8c-0.8-0.2-2.2-0.5-2.3,0.6c-0.1,1.1,1.9,1.4,5.2,2.1l0,0
		c0,0,0,0.1,0,0.1c-0.6,4.9,1.2,9,3.2,11.7c-0.6,0.1-1,0.6-1,1.2c0,0.7,0.6,1.2,1.3,1.2c0.6,0,1-0.3,1.2-0.8
		c1.2,1.2,2.3,1.8,2.9,1.8c0.6,0,1.7-0.7,2.9-1.8c0.2,0.5,0.7,0.8,1.2,0.8c0.7,0,1.3-0.6,1.3-1.2C25.4,42.3,25,41.8,24.4,41.7z"/>
	<path fill="none" d="M31.9,33.9c-4.6-2.2-6.8,11.1-4.9,15c0.7,1.6,2,2.5,3.4,3c-0.5-1-0.8-2.4-0.8-4c0-3,1-5.4,2.3-5.4
		c1.3,0,2.3,2.4,2.3,5.4c0,1.7-0.3,3.2-0.8,4.2c1.1-0.2,2.1-0.7,2.9-1.5C40.3,46.6,36.6,36.1,31.9,33.9z"/>
	<path fill="none" d="M8.1,33.9c-4.6,2.2-8.3,12.7-4.4,16.6c0.8,0.8,1.8,1.3,2.9,1.5c-0.5-1-0.8-2.5-0.8-4.2c0-3,1-5.4,2.3-5.4
		c1.3,0,2.3,2.4,2.3,5.4c0,1.6-0.3,3-0.8,4c1.4-0.4,2.6-1.4,3.4-3C14.8,45,12.7,31.7,8.1,33.9z"/>
</g>
</svg>
